# xmcd
# 
# Track frame offsets:
#     150
#     36565
#     58035
#     78745
#     102070
#     132630
#     172102
#     195115
# 
# Disc length: 2817
# 
# Revision: 1
# Processed by: cddbd v1.5.2PL0 Copyright (c) Steve Scherf et al.
# Submitted via: fre:ac v1.0.17
# 
DISCID=6e0aff08
DTITLE=John Mayer - Any Given Thursday 
DYEAR=2003
DGENRE=Blues rock
TTITLE0=3x5 [Live]
TTITLE1=No Such Thing [Live]
TTITLE2=Back to You [Live]
TTITLE3=City Love [Live]
TTITLE4=Something's Missing [Live]
TTITLE5=Lenny/Man on the Side [Live]
TTITLE6=Message in a Bottle [Live]
TTITLE7=Love Song For No One [Live]
EXTD=
EXTT0=
EXTT1=
EXTT2=
EXTT3=
EXTT4=
EXTT5=
EXTT6=
EXTT7=
PLAYORDER=
